<?xml version="1.0" encoding="utf-8"?>
<!-- Generator: Adobe Illustrator 23.0.1, SVG Export Plug-In . SVG Version: 6.00 Build 0)  -->
<svg version="1.1" id="图层_1" xmlns="http://www.w3.org/2000/svg" xmlns:xlink="http://www.w3.org/1999/xlink" x="0px" y="0px"
	 viewBox="0 0 595.28 841.89" style="enable-background:new 0 0 595.28 841.89;" xml:space="preserve">
<style type="text/css">
	.st0{fill:#23A0D8;}
	.st1{fill:#043A7A;}
</style>
<path class="st0" d="M-104,464.38c7.83-3.06,41.53,20.43,62.98-19.74l-7.83-2.04c0,0,8.47-18.26,13.58-29.16s9.91-13.05,13.66-12.03
	l8.51-14.64C-81.19,358.17-67.91,423.89-104,464.38z"/>
<path class="st1" d="M-13.11,402.76c17.7-25.87,35.4-28.6,62.64-17.7c0,0-9.87,10.55-19.74,36.43S14.55,458.92-2,468.46
	c-28.13,4.43-39.02-6.8-39.02-6.8s8.17-8.51,10.55-16.68c8.51-0.34,13.28-6.09,17.36-21.09s7.49-12.62,9.19-16.02
	C-0.51,402.08-13.11,402.76-13.11,402.76z"/>
<g>
	<g>
		<path class="st1" d="M72.56,403.21h54.33v4.4h-23.66v16.98c0,5.23-2.63,7.85-7.9,7.85c-3.04,0-6.51-0.06-10.41-0.17
			c-0.19-1.52-0.46-3.21-0.83-5.06c4.23,0.33,7.55,0.5,9.96,0.5c2.93,0.04,4.4-1.41,4.4-4.34V407.6H72.56V403.21z M74.56,387.06
			h50.1v11.36h-4.68v-7.18H79.24v7.18h-4.68V387.06z M94.99,380.27l4.23-2.28c1.63,2.02,3.14,4.11,4.51,6.26l-4.4,2.64
			C97.96,384.54,96.51,382.33,94.99,380.27z"/>
		<path class="st1" d="M135.67,423.63c6.53-3.23,11.84-7.25,15.92-12.08h-4.62v1.89h-3.84v-24.99h15.67
			c0.52-1.26,0.96-2.49,1.34-3.67h-23.07v-3.45h53.21v3.45H164.9c-0.52,1.22-1.07,2.45-1.64,3.67h21.18v24.44h-3.9v-1.34h-23.96
			c-0.98,1.26-2.01,2.47-3.09,3.62h30.73v3.23c-3.69,2.93-8.28,5.52-13.75,7.76c5.84,1.35,12.67,2.31,20.48,2.87
			c-1,1.63-1.87,3.12-2.62,4.45c-9.46-1.17-17.47-2.85-24.02-5.04c-6.81,2.28-14.74,4.15-23.8,5.59c-0.63-1.04-1.45-2.25-2.45-3.62
			c7.81-1.06,14.73-2.41,20.76-4.06c-4.27-1.87-7.71-4.04-10.33-6.48c-3.06,2.52-6.43,4.74-10.1,6.65
			C137.66,425.68,136.75,424.71,135.67,423.63z M180.54,391.68h-33.57v3.45h33.57V391.68z M146.97,401.7h33.57v-3.45h-33.57V401.7z
			 M146.97,408.33h33.57v-3.51h-33.57V408.33z M177.92,418.4h-25.91c3.19,2.47,7.39,4.54,12.61,6.21
			C169.89,422.81,174.32,420.74,177.92,418.4z"/>
		<path class="st1" d="M199.9,395.41c6.61-4.6,11.86-10.28,15.75-17.03l3.95,2c-1.63,2.64-3.4,5.13-5.29,7.49v21.74h-4.34v-16.87
			c-2.45,2.49-5.08,4.77-7.9,6.85C201.41,398.18,200.68,396.79,199.9,395.41z M200.29,415.51h24.6v-7.4h4.45v7.4h24.66v4.01h-24.66
			v14.19h-4.45v-14.19h-24.6V415.51z M216.05,397.92c4.79-1.26,9.26-2.77,13.42-4.54v-14h4.34v12.02
			c5.44-2.69,10.26-5.84,14.47-9.46l2.95,3.34c-4.97,3.86-10.78,7.39-17.42,10.58v4.56c0,2.49,1.54,3.73,4.62,3.73h5.9
			c2.82,0,4.43-1.21,4.84-3.62c0.41-2.08,0.67-4.23,0.78-6.46c1.82,0.78,3.27,1.34,4.34,1.67c-0.33,2.41-0.69,4.49-1.06,6.23
			c-0.71,4.08-3.36,6.12-7.96,6.12h-8.41c-4.94,0-7.4-2.3-7.4-6.9v-3.37c-3.45,1.5-7.11,2.92-10.97,4.26
			C217.83,400.72,217.01,399.33,216.05,397.92z"/>
		<path class="st1" d="M266.14,385.95h20.54v-7.13h4.62v7.13h20.6v31.28h-20.6v6.51c0,2.26,1.19,3.39,3.56,3.39h13.03
			c2.52,0,4.06-0.83,4.62-2.5c0.59-1.82,1.02-4.43,1.28-7.85c1.08,0.48,2.62,1.06,4.62,1.73c-0.45,2.97-0.95,5.51-1.5,7.63
			c-0.93,3.49-3.45,5.23-7.57,5.23h-14.81c-5.23,0-7.85-2.56-7.85-7.68v-6.46h-15.92v3.84h-4.62V385.95z M270.76,399.59h15.92v-9.46
			h-15.92V399.59z M270.76,413.06h15.92v-9.52h-15.92V413.06z M307.27,390.13H291.3v9.46h15.98V390.13z M307.27,413.06v-9.52H291.3
			v9.52H307.27z"/>
		<path class="st1" d="M326.58,405.43c5.83-7.83,10.41-16.75,13.75-26.77l4.45,1.61c-1.91,4.96-3.9,9.5-5.96,13.64v39.58h-4.45
			v-31.48c-1.91,3.12-3.88,5.93-5.9,8.43C327.96,408.92,327.33,407.25,326.58,405.43z M358.65,419.29
			c-4.38,5.34-8.94,10.11-13.69,14.3c-1-1.15-2.13-2.23-3.4-3.23c4.71-3.56,9.13-8.14,13.25-13.75L358.65,419.29z M367.94,379.16
			h4.56v12.25h7.96v4.01h-7.96v15.36h9.91v4.01h-40.47v-4.01h9.41v-15.36h-7.18v-4.01h7.18v-12.19h4.56v12.19h12.02V379.16z
			 M355.92,410.78h12.02v-15.36h-12.02V410.78z M365.27,419.18l3.28-2.78c5.86,5.42,10.45,9.94,13.75,13.58l-3.67,3.39
			C374.84,428.88,370.39,424.15,365.27,419.18z"/>
		<path class="st1" d="M391.76,401.48c2.89-0.74,5.75-1.51,8.57-2.31v-8.49h-7.9v-3.84h7.9v-8.24h4.23v8.24h6.57v3.84h-6.57v7.26
			c2.04-0.63,4.06-1.27,6.07-1.92c0,1.71,0.04,3.12,0.11,4.23c-0.2,0.07-2.26,0.72-6.18,1.95v8.18c0,4.49-2.1,6.73-6.29,6.73
			c-1.6,0-3.32-0.04-5.18-0.11c-0.15-1.26-0.37-2.78-0.67-4.56c1.82,0.3,3.47,0.45,4.95,0.45c1.97,0,2.95-1,2.95-3.01v-6.37
			c-2.23,0.71-4.81,1.51-7.74,2.42L391.76,401.48z M398.22,419.52l3.9,1.67c-1.67,3.82-3.71,7.77-6.12,11.86
			c-1.11-0.63-2.39-1.28-3.84-1.95C394.71,427.09,396.73,423.23,398.22,419.52z M407.29,421.74l3.67-1.62
			c1.71,3.12,3.47,6.57,5.29,10.35l-4.12,1.78C410.54,428.44,408.92,424.93,407.29,421.74z M412.08,399.03l2.39-3.17
			c1.71,1.04,3.4,2.09,5.09,3.15c0.57-2.5,0.88-5.24,0.92-8.21h-6.85v-4.01h6.93c0.07-3.08,0.1-5.88,0.08-8.41h4.29
			c0,2.41-0.04,5.21-0.11,8.41h12.91c-0.33,10.98-0.09,18.42,0.72,22.32c0.48,2.19,1.19,3.29,2.12,3.29c0.74,0,1.22-0.63,1.45-1.89
			c0.33-1.82,0.63-4.3,0.89-7.46c1.41,0.52,2.78,0.96,4.12,1.34c-0.37,3.3-0.76,5.92-1.17,7.85c-0.78,3.42-2.5,5.12-5.18,5.12
			c-3.19,0-5.34-2.58-6.46-7.74c-0.67-3.45-0.95-9.72-0.83-18.81h-8.66c-0.05,3.88-0.5,7.43-1.34,10.66
			c2.62,1.69,5.19,3.41,7.71,5.15l-2.78,3.95c-2.19-1.69-4.3-3.27-6.35-4.76c-2.32,5.55-6.05,9.86-11.19,12.94
			c-0.93-1.15-2-2.36-3.23-3.62c5.07-2.67,8.64-6.65,10.71-11.94C416.13,401.67,414.06,400.29,412.08,399.03z M421.43,421.46
			l3.67-1.61c1.89,3.3,3.67,6.7,5.34,10.19l-4.06,1.73C424.97,428.27,423.32,424.84,421.43,421.46z M435.12,420.35l3.56-2.12
			c2.41,3.56,4.81,7.33,7.18,11.3l-3.95,2.34C439.95,428.2,437.68,424.36,435.12,420.35z"/>
		<path class="st1" d="M470.57,433.26h-4.4v-28.81c-2.69,3.14-5.66,6.15-8.91,9.05c-0.78-1.3-1.67-2.65-2.67-4.06
			c7.16-5.99,12.76-12.63,16.78-19.93h-15.22v-4.12h17.31c1.06-2.32,1.97-4.69,2.73-7.13l4.62,1.06c-0.74,2.06-1.56,4.08-2.45,6.07
			h31.45v4.12h-33.45c-1.15,2.19-2.41,4.32-3.79,6.4h30.5v29.72c0,4.6-2.25,6.9-6.74,6.9c-1.97,0.04-4.95,0.05-8.96,0.05
			c-0.19-1.26-0.46-2.78-0.83-4.56c3.41,0.26,6.16,0.39,8.24,0.39c2.56,0,3.84-1.26,3.84-3.79v-3.95h-28.05V433.26z M498.63,399.81
			h-28.05v6.62h28.05V399.81z M470.57,416.9h28.05v-6.68h-28.05V416.9z"/>
		<path class="st1" d="M538.14,411.72c1.08,7.09-0.69,11.06-5.29,11.91c-1.67,0.33-3.54,0.37-5.62,0.11
			c-0.3-1.52-0.71-3.08-1.22-4.68c1.97,0.48,3.67,0.63,5.12,0.45c2.52-0.48,3.38-3.14,2.56-7.96c-0.52-2.97-2.21-6.31-5.07-10.02
			c1.34-4.04,3.08-9.44,5.23-16.2h-8.24v48.59h-4.17v-52.49h16.87v3.9c-1.82,5.23-3.56,10.39-5.23,15.47
			C536.04,404.86,537.73,408.49,538.14,411.72z M541.7,381.61h26.38v27.72h-4.12v-1.5h-9.41c1.15,3.34,2.73,6.35,4.73,9.02
			c3.34-2.12,6.87-4.73,10.58-7.85l2.95,3.51c-4.08,2.86-7.72,5.31-10.91,7.35c3.23,3.27,7.29,5.88,12.19,7.85
			c-1.37,1.34-2.56,2.69-3.56,4.06c-10.32-5.42-16.96-13.4-19.93-23.94h-4.79v18.93c2.49-1.11,5.73-2.75,9.74-4.9
			c0.04,1.71,0.13,3.17,0.28,4.4c-3.3,1.6-6.51,3.32-9.63,5.18c-0.74,0.41-1.74,1.19-3.01,2.34l-3.17-4.18
			c1.11-0.96,1.67-2.19,1.67-3.67V381.61z M563.97,385.39h-18.15v7.4h18.15V385.39z M563.97,404.04v-7.52h-18.15v7.52H563.97z"/>
		<path class="st1" d="M582.39,404.93c8.28-6.75,14.45-14.71,18.54-23.88l4.4,1.84c-5.01,10.43-11.47,18.96-19.37,25.61
			C584.99,407.27,583.8,406.08,582.39,404.93z M618.63,411.83c5.34,6.94,9.85,13.25,13.53,18.93l-4.23,2.78
			c-1.04-1.71-2.14-3.48-3.31-5.32c-12.25,0.59-22.2,1.2-29.86,1.81c-1.41,0.15-3.12,0.46-5.12,0.95l-2.45-4.73
			c1.67-0.67,3.21-1.69,4.62-3.06c4.34-5.01,9.05-12.41,14.14-22.21l4.79,2.17c-4.6,7.9-9.52,15.29-14.75,22.15
			c7.66-0.24,16.34-0.58,26.02-1.03c-2.12-3.21-4.44-6.6-6.99-10.16L618.63,411.83z M613.84,381.89l4.12-1.62
			c3.6,9.69,10.3,17.37,20.09,23.04c-1,1.04-2.15,2.49-3.45,4.34C624.36,400.61,617.44,392.02,613.84,381.89z"/>
		<path class="st1" d="M647.17,392.46h42.42v4.12h-42.42V392.46z M650.35,385.67v-4.12h48.09v43.31c0,5.27-2.38,7.9-7.13,7.9
			c-2.67,0-6.33-0.02-10.97-0.06c-0.11-1.26-0.43-2.86-0.95-4.79c4.53,0.26,8.07,0.39,10.63,0.39s3.84-1.49,3.84-4.45v-38.19H650.35
			z M652.68,403.15h29.22v19.71h-24.83v4.06h-4.4V403.15z M677.51,418.85v-11.69h-20.43v11.69H677.51z"/>
	</g>
</g>
<g>
	<g>
		<path class="st1" d="M90.6,467h-3.01l-9.89-15.3c-0.28-0.43-0.5-0.86-0.67-1.28h-0.08c0.07,0.44,0.1,1.36,0.1,2.75V467h-2.51
			v-19.67h3.19l9.62,15.03c0.46,0.71,0.73,1.16,0.81,1.36h0.05c-0.08-0.56-0.13-1.51-0.13-2.87v-13.52h2.51V467z"/>
		<path class="st1" d="M98.22,447.33V467h-2.54v-19.67H98.22z"/>
		<path class="st1" d="M119.38,467h-3.01l-9.89-15.3c-0.28-0.43-0.5-0.86-0.67-1.28h-0.08c0.07,0.44,0.1,1.36,0.1,2.75V467h-2.51
			v-19.67h3.19l9.62,15.03c0.46,0.71,0.73,1.16,0.81,1.36h0.05c-0.08-0.56-0.13-1.51-0.13-2.87v-13.52h2.51V467z"/>
		<path class="st1" d="M139.32,465.65c-1.96,1.12-4.18,1.68-6.65,1.68c-2.84,0-5.14-0.9-6.87-2.7c-1.74-1.8-2.61-4.2-2.61-7.21
			c0-3.04,0.96-5.54,2.88-7.49s4.38-2.93,7.39-2.93c2.12,0,3.92,0.34,5.4,1.02v2.74c-1.57-0.99-3.45-1.49-5.62-1.49
			c-2.14,0-3.91,0.73-5.29,2.2s-2.08,3.39-2.08,5.79c0,2.46,0.64,4.38,1.92,5.75s3,2.06,5.18,2.06c1.5,0,2.77-0.29,3.82-0.86v-5.32
			h-4.27v-2.25h6.82V465.65z"/>
		<path class="st1" d="M157.64,467h-3.08l-4.39-7.4c-0.1-0.17-0.25-0.51-0.44-1.02h-0.06c-0.02,0.07-0.17,0.41-0.46,1.03l-4.52,7.39
			h-3.1l6.54-9.88l-6.02-9.79h3.11l3.88,6.8c0.23,0.4,0.46,0.86,0.69,1.4h0.05c0.2-0.46,0.45-0.94,0.75-1.46l4.06-6.74h2.91
			l-6.14,9.75L157.64,467z"/>
		<path class="st1" d="M163.1,447.33V467h-2.54v-19.67H163.1z"/>
		<path class="st1" d="M183.66,467h-2.81l-2.01-5.38h-8.19l-1.89,5.38h-2.81l7.49-19.67h2.72L183.66,467z M178.06,459.4l-2.97-8.18
			c-0.09-0.26-0.19-0.72-0.3-1.37h-0.06c-0.09,0.59-0.2,1.05-0.32,1.37l-2.95,8.18H178.06z"/>
		<path class="st1" d="M209.22,467h-2.54v-8.86h-9.95V467h-2.54v-19.67h2.54v8.54h9.95v-8.54h2.54V467z"/>
		<path class="st1" d="M228.88,458.99c0,5.56-2.52,8.34-7.57,8.34c-4.83,0-7.25-2.68-7.25-8.05v-11.95h2.54v11.83
			c0,3.94,1.65,5.9,4.95,5.9c3.19,0,4.79-1.9,4.79-5.71v-12.02h2.54V458.99z"/>
		<path class="st1" d="M248.6,467h-2.81l-2.01-5.38h-8.19l-1.89,5.38h-2.81l7.49-19.67h2.72L248.6,467z M243.01,459.4l-2.97-8.18
			c-0.09-0.26-0.19-0.72-0.3-1.37h-0.06c-0.09,0.59-0.2,1.05-0.32,1.37l-2.95,8.18H243.01z"/>
		<path class="st1" d="M251.45,467v-19.67h5.61c2.98,0,5.46,0.87,7.43,2.6c1.98,1.74,2.96,4.06,2.96,6.98
			c0,3.05-0.99,5.49-2.96,7.33c-1.98,1.84-4.52,2.75-7.64,2.75H251.45z M253.99,449.59v15.16h2.86c2.5,0,4.45-0.68,5.85-2.04
			c1.4-1.36,2.1-3.27,2.1-5.73s-0.72-4.3-2.16-5.54s-3.33-1.85-5.67-1.85H253.99z"/>
		<path class="st1" d="M273.79,447.33V467h-2.54v-19.67H273.79z"/>
		<path class="st1" d="M294.35,467h-2.81l-2.01-5.38h-8.19l-1.89,5.38h-2.81l7.49-19.67h2.72L294.35,467z M288.75,459.4l-2.97-8.18
			c-0.09-0.26-0.19-0.72-0.3-1.37h-0.06c-0.09,0.59-0.2,1.05-0.32,1.37l-2.95,8.18H288.75z"/>
		<path class="st1" d="M313.25,467h-3.01l-9.89-15.3c-0.28-0.43-0.5-0.86-0.67-1.28h-0.08c0.07,0.44,0.1,1.36,0.1,2.75V467h-2.51
			v-19.67h3.19l9.62,15.03c0.46,0.71,0.73,1.16,0.81,1.36h0.05c-0.08-0.56-0.13-1.51-0.13-2.87v-13.52h2.51V467z"/>
		<path class="st1" d="M341.05,467h-2.54v-8.86h-9.95V467h-2.54v-19.67h2.54v8.54h9.95v-8.54h2.54V467z"/>
		<path class="st1" d="M356.71,467h-10.58v-19.67h10.13v2.26h-7.59v6.3h7.03v2.25h-7.03v6.61h8.04V467z"/>
		<path class="st1" d="M376.01,467h-2.81l-2.01-5.38h-8.19l-1.89,5.38h-2.81l7.49-19.67h2.72L376.01,467z M370.42,459.4l-2.97-8.18
			c-0.09-0.26-0.19-0.72-0.3-1.37h-0.06c-0.09,0.59-0.2,1.05-0.32,1.37l-2.95,8.18H370.42z"/>
		<path class="st1" d="M388.72,449.59h-5.67V467h-2.55v-17.41h-5.65v-2.26h13.88V449.59z"/>
		<path class="st1" d="M394.28,447.33V467h-2.54v-19.67H394.28z"/>
		<path class="st1" d="M415.45,467h-3.01l-9.89-15.3c-0.28-0.43-0.5-0.86-0.67-1.28h-0.08c0.07,0.44,0.1,1.36,0.1,2.75V467h-2.51
			v-19.67h3.19l9.62,15.03c0.46,0.71,0.73,1.16,0.81,1.36h0.05c-0.08-0.56-0.13-1.51-0.13-2.87v-13.52h2.51V467z"/>
		<path class="st1" d="M435.39,465.65c-1.96,1.12-4.18,1.68-6.65,1.68c-2.84,0-5.14-0.9-6.87-2.7c-1.74-1.8-2.61-4.2-2.61-7.21
			c0-3.04,0.96-5.54,2.88-7.49s4.38-2.93,7.39-2.93c2.12,0,3.92,0.34,5.4,1.02v2.74c-1.57-0.99-3.45-1.49-5.62-1.49
			c-2.14,0-3.91,0.73-5.29,2.2s-2.08,3.39-2.08,5.79c0,2.46,0.64,4.38,1.92,5.75s3,2.06,5.18,2.06c1.5,0,2.77-0.29,3.82-0.86v-5.32
			h-4.27v-2.25h6.82V465.65z"/>
		<path class="st1" d="M461.01,466.19c-1.45,0.76-3.26,1.14-5.45,1.14c-2.82,0-5.07-0.89-6.75-2.69c-1.68-1.79-2.53-4.16-2.53-7.1
			c0-3.17,0.95-5.71,2.84-7.64s4.3-2.89,7.22-2.89c1.88,0,3.43,0.27,4.66,0.8v2.65c-1.41-0.78-2.95-1.17-4.63-1.17
			c-2.19,0-3.98,0.73-5.36,2.19c-1.38,1.46-2.07,3.43-2.07,5.91c0,2.35,0.64,4.22,1.93,5.6c1.29,1.38,2.97,2.08,5.05,2.08
			c1.95,0,3.64-0.44,5.08-1.32V466.19z"/>
		<path class="st1" d="M463.31,457.4c0-3.17,0.86-5.7,2.58-7.58s4.05-2.82,6.98-2.82c2.73,0,4.93,0.92,6.6,2.75s2.5,4.23,2.5,7.17
			c0,3.19-0.85,5.72-2.56,7.59s-4,2.81-6.86,2.81c-2.79,0-5.03-0.92-6.72-2.75S463.31,460.35,463.31,457.4z M465.97,457.2
			c0,2.38,0.61,4.29,1.82,5.72c1.21,1.44,2.8,2.15,4.75,2.15c2.1,0,3.75-0.69,4.95-2.06c1.2-1.38,1.8-3.3,1.8-5.77
			c0-2.54-0.59-4.5-1.76-5.88c-1.17-1.38-2.78-2.07-4.82-2.07c-2.01,0-3.63,0.73-4.88,2.18S465.97,454.84,465.97,457.2z"/>
		<path class="st1" d="M500.12,467h-3l-3.26-5.46c-0.65-1.09-1.25-1.83-1.79-2.23c-0.54-0.39-1.19-0.59-1.94-0.59h-1.83V467h-2.54
			v-19.67h5.99c1.91,0,3.41,0.46,4.49,1.38s1.63,2.21,1.63,3.87c0,2.73-1.46,4.49-4.37,5.31v0.06c0.54,0.23,1.01,0.55,1.4,0.98
			c0.39,0.42,0.9,1.15,1.53,2.17L500.12,467z M488.3,449.56v6.94h3c1.16,0,2.1-0.34,2.82-1.02c0.72-0.68,1.09-1.57,1.09-2.67
			c0-1.02-0.33-1.82-0.99-2.4s-1.62-0.86-2.88-0.86H488.3z"/>
		<path class="st1" d="M505.28,459.65V467h-2.54v-19.67h5.59c2.12,0,3.77,0.51,4.95,1.54c1.17,1.02,1.76,2.49,1.76,4.39
			c0,1.93-0.69,3.49-2.06,4.69c-1.37,1.2-3.08,1.76-5.14,1.69H505.28z M505.28,449.57v7.85h2.35c1.55,0,2.73-0.35,3.53-1.05
			c0.8-0.7,1.21-1.7,1.21-3c0-2.53-1.5-3.8-4.49-3.8H505.28z"/>
		<path class="st1" d="M517.38,457.4c0-3.17,0.86-5.7,2.58-7.58S524,447,526.94,447c2.73,0,4.93,0.92,6.6,2.75s2.5,4.23,2.5,7.17
			c0,3.19-0.85,5.72-2.56,7.59s-4,2.81-6.86,2.81c-2.79,0-5.03-0.92-6.72-2.75S517.38,460.35,517.38,457.4z M520.04,457.2
			c0,2.38,0.61,4.29,1.82,5.72c1.21,1.44,2.8,2.15,4.75,2.15c2.1,0,3.75-0.69,4.95-2.06c1.2-1.38,1.8-3.3,1.8-5.77
			c0-2.54-0.59-4.5-1.76-5.88c-1.17-1.38-2.78-2.07-4.82-2.07c-2.01,0-3.63,0.73-4.88,2.18S520.04,454.84,520.04,457.2z"/>
		<path class="st1" d="M554.19,467h-3l-3.26-5.46c-0.65-1.09-1.25-1.83-1.79-2.23c-0.54-0.39-1.19-0.59-1.94-0.59h-1.83V467h-2.54
			v-19.67h5.99c1.91,0,3.41,0.46,4.49,1.38s1.63,2.21,1.63,3.87c0,2.73-1.46,4.49-4.37,5.31v0.06c0.54,0.23,1.01,0.55,1.4,0.98
			c0.39,0.42,0.9,1.15,1.53,2.17L554.19,467z M542.37,449.56v6.94h3c1.16,0,2.1-0.34,2.82-1.02c0.72-0.68,1.09-1.57,1.09-2.67
			c0-1.02-0.33-1.82-0.99-2.4s-1.62-0.86-2.88-0.86H542.37z"/>
		<path class="st1" d="M572.26,467h-2.81l-2.01-5.38h-8.19l-1.89,5.38h-2.81l7.49-19.67h2.72L572.26,467z M566.66,459.4l-2.97-8.18
			c-0.09-0.26-0.19-0.72-0.3-1.37h-0.06c-0.09,0.59-0.2,1.05-0.32,1.37l-2.95,8.18H566.66z"/>
		<path class="st1" d="M584.97,449.59h-5.67V467h-2.55v-17.41h-5.65v-2.26h13.88V449.59z"/>
		<path class="st1" d="M590.53,447.33V467h-2.54v-19.67H590.53z"/>
		<path class="st1" d="M594.36,457.4c0-3.17,0.86-5.7,2.58-7.58s4.05-2.82,6.98-2.82c2.73,0,4.93,0.92,6.6,2.75s2.5,4.23,2.5,7.17
			c0,3.19-0.85,5.72-2.56,7.59s-4,2.81-6.86,2.81c-2.79,0-5.03-0.92-6.72-2.75S594.36,460.35,594.36,457.4z M597.03,457.2
			c0,2.38,0.61,4.29,1.82,5.72c1.21,1.44,2.8,2.15,4.75,2.15c2.1,0,3.75-0.69,4.95-2.06c1.2-1.38,1.8-3.3,1.8-5.77
			c0-2.54-0.59-4.5-1.76-5.88c-1.17-1.38-2.78-2.07-4.82-2.07c-2.01,0-3.63,0.73-4.88,2.18S597.03,454.84,597.03,457.2z"/>
		<path class="st1" d="M632.88,467h-3.01l-9.89-15.3c-0.28-0.43-0.5-0.86-0.67-1.28h-0.08c0.07,0.44,0.1,1.36,0.1,2.75V467h-2.51
			v-19.67h3.19l9.62,15.03c0.46,0.71,0.73,1.16,0.81,1.36h0.05c-0.08-0.56-0.13-1.51-0.13-2.87v-13.52h2.51V467z"/>
		<path class="st1" d="M656.02,467h-10.37v-19.67h2.54v17.42h7.83V467z"/>
		<path class="st1" d="M669.33,449.59h-5.67V467h-2.55v-17.41h-5.65v-2.26h13.88V449.59z"/>
		<path class="st1" d="M672.35,467v-19.67h5.61c2.98,0,5.46,0.87,7.43,2.6c1.98,1.74,2.96,4.06,2.96,6.98
			c0,3.05-0.99,5.49-2.96,7.33c-1.98,1.84-4.52,2.75-7.64,2.75H672.35z M674.89,449.59v15.16h2.86c2.5,0,4.45-0.68,5.85-2.04
			c1.4-1.36,2.1-3.27,2.1-5.73s-0.72-4.3-2.16-5.54s-3.33-1.85-5.67-1.85H674.89z"/>
		<path class="st1" d="M689.36,465.69c0-0.46,0.16-0.84,0.47-1.16s0.7-0.47,1.17-0.47c0.47,0,0.87,0.16,1.18,0.48
			c0.31,0.32,0.47,0.7,0.47,1.15c0,0.44-0.16,0.82-0.47,1.14c-0.31,0.32-0.71,0.48-1.19,0.48c-0.47,0-0.85-0.16-1.16-0.48
			C689.51,466.51,689.36,466.13,689.36,465.69z"/>
	</g>
</g>
</svg>
