<?xml version="1.0" standalone="no"?><!DOCTYPE svg PUBLIC "-//W3C//DTD SVG 1.1//EN" "http://www.w3.org/Graphics/SVG/1.1/DTD/svg11.dtd"><svg t="1543458355909" class="icon" style="" viewBox="0 0 1024 1024" version="1.1" xmlns="http://www.w3.org/2000/svg" p-id="9904" xmlns:xlink="http://www.w3.org/1999/xlink" width="28" height="28"><defs><style type="text/css"></style></defs><path d="M441.6 964.266667h-2.133333c-2.133333 0-307.2-49.066667-307.2-311.466667 0-119.466667 81.066667-189.866667 160-258.133333 91.733333-81.066667 179.2-155.733333 136.533333-313.6-2.133333-8.533333 0-14.933333 6.4-21.333334 6.4-6.4 12.8-6.4 21.333333-4.266666 2.133333 0 42.666667 12.8 91.733334 44.8 10.666667 6.4 12.8 19.2 6.4 29.866666-6.4 10.666667-19.2 12.8-29.866667 6.4-17.066667-10.666667-32-19.2-44.8-25.6 25.6 155.733333-72.533333 241.066667-157.866667 315.733334-74.666667 64-145.066667 125.866667-145.066666 226.133333 0 157.866667 132.266667 226.133333 211.2 253.866667-51.2-70.4-68.266667-140.8-55.466667-206.933334 25.6-134.4 168.533333-204.8 172.8-206.933333 8.533333-4.266667 19.2-2.133333 25.6 4.266667 6.4 6.4 6.4 17.066667 2.133333 25.6 0 2.133333-29.866667 49.066667 27.733334 128 12.8 17.066667 27.733333 34.133333 44.8 51.2 21.333333 19.2 34.133333 42.666667 40.533333 68.266666 12.8 53.333333-6.4 108.8-23.466667 145.066667 44.8-12.8 100.266667-42.666667 149.333334-89.6 38.4-36.266667 83.2-98.133333 83.2-172.8 0-121.6-81.066667-213.333333-117.333334-247.466667-27.733333 36.266667-57.6 55.466667-59.733333 57.6-6.4 4.266667-17.066667 4.266667-23.466667 0-6.4-4.266667-10.666667-14.933333-8.533333-23.466666 12.8-49.066667 12.8-96 2.133333-138.666667-2.133333-8.533333-4.266667-19.2-8.533333-27.733333-4.266667-10.666667 2.133333-23.466667 12.8-27.733334 10.666667-4.266667 23.466667 2.133333 27.733333 12.8 4.266667 10.666667 8.533333 21.333333 10.666667 32 6.4 29.866667 10.666667 61.866667 6.4 96 6.4-6.4 10.666667-14.933333 17.066667-23.466666 2.133333-4.266667 8.533333-8.533333 14.933333-10.666667 6.4-2.133333 12.8 0 17.066667 4.266667 6.4 4.266667 151.466667 119.466667 151.466666 296.533333 0 91.733333-51.2 162.133333-93.866666 204.8-64 64-155.733333 108.8-217.6 108.8h-2.133334c-8.533333 0-14.933333-4.266667-19.2-12.8s-2.133333-14.933333 2.133334-21.333333c0 0 57.6-81.066667 40.533333-149.333334-4.266667-19.2-14.933333-34.133333-29.866667-49.066666-19.2-19.2-36.266667-38.4-49.066666-55.466667-36.266667-49.066667-44.8-89.6-44.8-119.466667-40.533333 29.866667-93.866667 81.066667-108.8 151.466667-12.8 68.266667 17.066667 142.933333 87.466666 221.866667 6.4 6.4 6.4 17.066667 2.133334 23.466666-8.533333 4.266667-17.066667 8.533333-23.466667 8.533334z" fill="#ffffff" p-id="9905"></path><path d="M599.466667 219.733333c-17.066667 0-32-14.933333-32-32s14.933333-32 32-32 32 14.933333 32 32-12.8 32-32 32z" fill="#ffffff" p-id="9906"></path></svg>