<?xml version="1.0" standalone="no"?><!DOCTYPE svg PUBLIC "-//W3C//DTD SVG 1.1//EN" "http://www.w3.org/Graphics/SVG/1.1/DTD/svg11.dtd"><svg t="1543478138228" class="icon" style="" viewBox="0 0 1024 1024" version="1.1" xmlns="http://www.w3.org/2000/svg" p-id="21939" data-spm-anchor-id="a313x.7781069.0.i39" xmlns:xlink="http://www.w3.org/1999/xlink" width="28" height="28"><defs><style type="text/css"></style></defs><path d="M246.922 178.39h528.057v28.233H246.922zM246.922 231.747h528.057v28.232H246.922zM246.922 776.689h528.057v28.226H246.922zM246.922 830.046h528.057v28.226H246.922z" p-id="21940" fill="#ffffff"></path><path d="M176.514 91.111V936h669.972V91.111H176.514zM807.98 879.895H211.718V142.817H807.98v737.078z" p-id="21941" fill="#ffffff"></path><path d="M570.029 740.749c82.783-52.292 103.874-101.211 91.807-168.696-9.023-50.606-43.66-91.071-46.65-139.991-12.05 25.303-13.546 43.841-15.042 72.521-40.668-57.334-84.313-131.558-75.271-200.702 0 0-76.768 26.97-108.361 160.222-18.083-18.547-16.569-55.65-7.527-79.269-27.091 23.619-185.129 222.663 24.063 355.916 13.545 5.068 22.587-10.109 13.545-18.566-76.75-84.347-10.52-183.839 66.23-229.391-6.016 23.618-19.543 74.206 10.556 113.02-6.034-38.814 24.081-64.116 24.081-64.116 0 50.604 24.066 64.116 33.107 97.843 9.042 30.371-2.992 64.097-27.092 82.645-7.528 6.753-1.512 25.3 16.554 18.564z m0 0" p-id="21942" fill="#ffffff"></path></svg>