<?xml version="1.0" standalone="no"?><!DOCTYPE svg PUBLIC "-//W3C//DTD SVG 1.1//EN" "http://www.w3.org/Graphics/SVG/1.1/DTD/svg11.dtd"><svg t="1543478491330" class="icon" style="" viewBox="0 0 1757 1024" version="1.1" xmlns="http://www.w3.org/2000/svg" p-id="24233" data-spm-anchor-id="a313x.7781069.0.i44" xmlns:xlink="http://www.w3.org/1999/xlink" width="48.04296875" height="28"><defs><style type="text/css"></style></defs><path d="M1327.36 937.691429l-295.497143 0.182857c-15.725714 0-25.6-17.005714-17.737143-30.537143l147.565715-256c7.862857-13.531429 27.428571-13.531429 35.291428 0l147.931429 255.817143c7.862857 13.531429-1.828571 30.537143-17.554286 30.537143" fill="#ffffff" p-id="24234"></path><path d="M988.891429 751.177143h-572.342858c-14.262857 0-25.965714-11.702857-25.965714-25.965714 0-14.262857 11.702857-25.965714 25.965714-25.965715h572.342858c14.262857 0 25.965714 11.702857 25.965714 25.965715 0 14.445714-11.702857 25.965714-25.965714 25.965714zM550.034286 937.691429h-133.485715c-14.262857 0-25.965714-11.702857-25.965714-25.965715 0-14.262857 11.702857-25.965714 25.965714-25.965714h133.485715c14.262857 0 25.965714 11.702857 25.965714 25.965714 0 14.445714-11.702857 25.965714-25.965714 25.965715zM923.062857 937.691429h-261.485714c-14.262857 0-25.965714-11.702857-25.965714-25.965715 0-14.262857 11.702857-25.965714 25.965714-25.965714h261.485714c14.262857 0 25.965714 11.702857 25.965714 25.965714 0 14.445714-11.702857 25.965714-25.965714 25.965715zM921.965714 444.708571l173.897143-173.897142c10.057143-10.057143 10.057143-26.514286 0-36.571429s-26.514286-10.057143-36.571428 0l-173.897143 173.897143c-10.057143 10.057143-10.057143 26.514286 0 36.571428 9.874286 10.057143 26.514286 10.057143 36.571428 0z" fill="#ffffff" p-id="24235"></path><path d="M1214.171429 171.52C1122.925714 80.457143 1001.691429 30.171429 872.777143 30.171429S622.628571 80.457143 531.382857 171.52 390.034286 384 390.034286 512.914286c0 4.571429 1.097143 8.96 3.108571 12.617143 0 0.182857 0.182857 0.365714 0.182857 0.548571 4.388571 8.411429 13.165714 14.262857 23.04 14.262857h127.451429c7.131429 0 13.714286-2.925714 18.285714-7.68 4.754286-4.754286 7.68-11.154286 7.68-18.285714 0-14.262857-11.702857-25.965714-25.965714-25.965714h-98.377143c4.937143-88.502857 36.937143-169.691429 87.771429-235.885715l50.285714 50.285715c5.12 5.12 11.702857 7.497143 18.285714 7.497142s13.348571-2.56 18.285714-7.497142c10.057143-10.057143 10.057143-26.514286 0-36.571429l-52.845714-52.845714c72.045714-73.325714 170.24-121.051429 279.405714-127.634286v70.034286c0 14.262857 11.702857 25.965714 25.965715 25.965714 14.262857-0.182857 25.965714-11.885714 25.965714-26.148571V85.76c215.771429 12.982857 388.937143 186.514286 401.188571 402.651429H1201.371429c-14.262857 0-25.965714 11.702857-25.965715 25.965714s11.702857 25.965714 25.965715 25.965714h127.451428c10.057143 0 18.651429-5.851429 23.04-14.08 2.194286-4.022857 3.474286-8.411429 3.474286-13.348571 0.182857-128.914286-50.102857-250.148571-141.165714-341.394286z" fill="#ffffff" p-id="24236"></path><path d="M872.777143 452.205714m-77.714286 0a77.714286 77.714286 0 1 0 155.428572 0 77.714286 77.714286 0 1 0-155.428572 0Z" fill="#ffffff" p-id="24237"></path></svg>